<svg width="48" height="49" viewBox="0 0 48 49" fill="none" xmlns="http://www.w3.org/2000/svg">
<path d="M24 1.33496C36.9787 1.33496 47.5 11.8563 47.5 24.835C47.5 37.8136 36.9787 48.335 24 48.335C11.0213 48.335 0.500004 37.8136 0.5 24.835C0.5 11.8563 11.0213 1.33496 24 1.33496Z" fill="#DA0B09" fill-opacity="0.1" stroke="white"/>
<path fill-rule="evenodd" clip-rule="evenodd" d="M33.5534 17.8168C34.5171 18.0764 35.277 18.8361 35.5364 19.8C36.0184 21.5606 35.9999 25.2303 35.9999 25.2303C35.9999 25.2303 35.9999 28.8814 35.5366 30.6421C35.277 31.6058 34.5173 32.3657 33.5534 32.6251C31.7927 33.0886 24.7499 33.0886 24.7499 33.0886C24.7499 33.0886 17.7256 33.0886 15.9465 32.6067C14.9826 32.3472 14.2229 31.5873 13.9633 30.6235C13.5 28.8814 13.5 25.2118 13.5 25.2118C13.5 25.2118 13.5 21.5606 13.9633 19.8C14.2227 18.8363 15.0012 18.0578 15.9463 17.7984C17.7071 17.335 24.7498 17.335 24.7498 17.335C24.7498 17.335 31.7927 17.335 33.5534 17.8168ZM28.3631 25.2119L22.5065 28.585V21.8387L28.3631 25.2119Z" fill="white"/>
</svg>
