<svg width="71" height="32" viewBox="0 0 71 32" fill="none" xmlns="http://www.w3.org/2000/svg">
<path d="M65.1972 31.974C65.1972 31.8824 65.1972 31.7976 65.1972 31.7129C65.1972 27.3007 65.1998 22.8886 65.1952 18.4768C65.1943 17.4909 65.1848 16.5037 64.9763 15.5329C64.8507 14.9481 64.6537 14.3919 64.2732 13.9191C63.7938 13.3235 63.1341 13.0375 62.4126 12.8739C61.5619 12.6809 60.6957 12.6639 59.828 12.6685C59.1281 12.6721 58.4282 12.6727 57.7283 12.6717C57.0035 12.6711 56.565 13.1036 56.5611 13.8399C56.5565 14.6926 56.5598 15.5456 56.5598 16.3987C56.5598 21.5362 56.5598 26.6735 56.5595 31.811C56.5595 31.8631 56.5549 31.8428 56.5519 31.9046C54.7035 31.9046 52.8675 31.9046 51.0145 31.9046C51.0145 29.0252 51.0145 26.2213 51.0145 23.3454C49.9887 26.5148 48.084 28.9623 45.1302 30.5379C42.1732 32.115 39.0451 32.3954 35.8541 31.4799C32.6399 30.5578 30.2627 28.5222 28.6364 25.5894C28.3753 25.9602 28.1289 26.3279 27.8649 26.6823C26.7896 28.1253 25.5619 29.4051 23.9809 30.3091C21.9345 31.4792 19.7336 32.011 17.3803 31.9524C14.4537 31.8794 11.8933 30.8831 9.70653 28.9384C8.71737 28.0586 7.93108 27.0171 7.27567 25.8682C6.85847 25.1366 6.5486 24.364 6.28487 23.5689C6.26655 23.5139 6.24593 23.4596 6.1854 23.4079C6.1854 26.233 6.1854 29.0582 6.1854 31.9154C4.35039 31.9154 2.5481 31.9154 0.724221 31.9154C0.72193 31.8739 0.715386 31.8104 0.715386 31.7469C0.714731 24.3228 0.714731 16.8983 0.715059 9.4742C0.715059 9.38095 0.717349 9.28769 0.722585 9.19444C0.761196 8.48537 1.1761 8.11987 1.88615 8.16175C3.74439 8.27137 4.97209 9.23567 5.63895 10.9437C6.10458 12.1367 6.19652 13.3896 6.19162 14.6553C6.189 15.3536 6.19129 16.0518 6.21387 16.7586C6.27865 16.5567 6.34279 16.3548 6.4079 16.1533C6.74297 15.114 7.22659 14.1439 7.82702 13.2368C8.44644 12.3013 9.18234 11.464 10.0531 10.7458C11.0929 9.88845 12.248 9.2373 13.4966 8.74223C14.3903 8.38786 15.3159 8.16928 16.2727 8.0865C19.4643 7.80967 22.4119 8.46966 25.0306 10.3806C25.1218 10.4473 25.2105 10.518 25.2989 10.5887C25.7013 10.911 25.7773 11.2811 25.5034 11.7307C25.2475 12.1511 24.9671 12.5569 24.6971 12.9688C24.4128 13.403 24.1301 13.8389 23.8428 14.2715C23.4789 14.8192 23.0195 14.9069 22.4547 14.5542C22.0546 14.3042 21.6596 14.0398 21.2378 13.8307C18.875 12.659 15.5882 12.7512 13.335 15.0077C12.2064 16.1379 11.5386 17.5037 11.3563 19.0956C11.2114 20.3615 11.3253 21.6014 11.853 22.7721C12.8239 24.9245 14.455 26.309 16.7838 26.7586C18.5609 27.1015 20.247 26.7442 21.8262 25.8482C23.4547 24.9245 24.631 23.5866 25.5168 21.9619C26.505 20.1498 27.2582 18.2428 27.8809 16.2779C28.445 14.4979 29.4011 12.9463 30.6998 11.6024C31.6638 10.6047 32.8015 9.8505 34.0148 9.19902C34.3476 9.02036 35.9624 8.18597 38.801 8.03447C40.2152 7.9916 41.6091 8.13361 42.9654 8.55637C44.7811 9.12245 46.3802 10.0593 47.7525 11.3776C49.2741 12.8393 50.3205 14.5905 50.9242 16.6091C50.9392 16.6601 50.9576 16.7102 50.9752 16.7602C50.9766 16.7638 50.9873 16.7638 51.0076 16.7691C51.0076 16.0679 51.0076 15.3699 51.0076 14.672C51.0076 13.6458 50.9942 12.6194 51.0116 11.5936C51.0292 10.5514 51.3322 9.61 52.1208 8.88162C52.7654 8.28609 53.5625 8.05312 54.4152 8.04461C56.3212 8.02531 58.2276 8.03349 60.1336 8.03872C61.3662 8.04232 62.5991 8.0505 63.8314 8.07602C64.4983 8.08977 65.1638 8.16175 65.7996 8.37804C66.582 8.64439 67.2361 9.12703 67.846 9.66922C68.6843 10.4143 69.2929 11.3269 69.7824 12.3308C70.1879 13.1625 70.4123 14.0395 70.5749 14.9445C70.8472 16.4589 70.749 17.985 70.7536 19.5069C70.766 23.5722 70.7579 27.6378 70.7579 31.7034C70.7579 31.7888 70.7579 31.8745 70.7579 31.9743C68.9003 31.974 67.0594 31.974 65.1972 31.974ZM32.7793 20.0599C32.7789 22.5123 33.9258 24.0973 34.9395 25.0299C36.0671 26.0672 37.4021 26.6231 38.9368 26.7275C40.8591 26.8584 42.5194 26.2556 43.8701 24.9095C45.6878 23.0984 46.2637 20.8655 45.6898 18.4061C45.0432 15.6346 43.2707 13.8788 40.4482 13.3523C38.3517 12.9613 36.4653 13.5362 34.9078 15.0182C33.4762 16.381 32.8218 18.0871 32.7793 20.0599Z" fill="#030212"/>
<path d="M3.46119 1.31685e-05C5.20197 -0.00456781 6.65152 1.18649 6.89235 2.89879C7.08082 4.23872 6.52685 5.29202 5.42251 6.04559C3.83454 7.12867 1.23975 6.74877 0.258765 4.56954C-0.340688 3.23844 0.130171 1.59714 1.37325 0.677998C1.99757 0.216628 2.65789 0.00197644 3.46119 1.31685e-05Z" fill="#E32320"/>
</svg>
